<svg id="Layer_1" data-name="Layer 1" xmlns="http://www.w3.org/2000/svg" xmlns:xlink="http://www.w3.org/1999/xlink" viewBox="0 0 236.31 30.79"><defs><style>.cls-1{fill:url(#linear-gradient);}.cls-2{fill:url(#linear-gradient-2);}.cls-3{fill:url(#linear-gradient-3);}.cls-4{fill:url(#linear-gradient-4);}.cls-5{fill:url(#linear-gradient-5);}.cls-6{fill:url(#linear-gradient-6);}.cls-7{fill:url(#linear-gradient-7);}.cls-8{fill:url(#linear-gradient-8);}.cls-9{fill:url(#linear-gradient-9);}.cls-10{fill:url(#linear-gradient-10);}.cls-11{fill:url(#linear-gradient-11);}.cls-12{fill:url(#linear-gradient-12);}.cls-13{fill:url(#linear-gradient-13);}.cls-14,.cls-15{fill-rule:evenodd;}.cls-14{fill:url(#linear-gradient-14);}.cls-15{fill:url(#linear-gradient-15);}</style><linearGradient id="linear-gradient" x1="129.93" y1="17.72" x2="149.93" y2="17.72" gradientUnits="userSpaceOnUse"><stop offset="0" stop-color="#fff"/><stop offset="1" stop-color="#e2e2e2"/></linearGradient><linearGradient id="linear-gradient-2" x1="154.12" y1="17.71" x2="179.94" y2="17.71" xlink:href="#linear-gradient"/><linearGradient id="linear-gradient-3" x1="184.13" y1="17.71" x2="208.89" y2="17.71" xlink:href="#linear-gradient"/><linearGradient id="linear-gradient-4" x1="213.08" y1="17.72" x2="236.31" y2="17.72" xlink:href="#linear-gradient"/><linearGradient id="linear-gradient-5" x1="8.84" y1="0.07" x2="8.84" y2="25.82" gradientTransform="matrix(1, 0, 0, -1, -1, 30.75)" gradientUnits="userSpaceOnUse"><stop offset="0" stop-color="#0072b1"/><stop offset="0.15" stop-color="#0079b8"/><stop offset="0.37" stop-color="#008bcb"/><stop offset="0.62" stop-color="#00a9ea"/><stop offset="0.67" stop-color="#00aff0"/><stop offset="0.81" stop-color="#19c7f6"/><stop offset="1" stop-color="#3febff"/></linearGradient><linearGradient id="linear-gradient-6" x1="32.1" y1="12.72" x2="32.1" y2="25.33" xlink:href="#linear-gradient-5"/><linearGradient id="linear-gradient-7" x1="23.7" y1="-0.26" x2="23.7" y2="25" gradientTransform="matrix(1, 0, 0, -1, -1.81, 30.42)" xlink:href="#linear-gradient-5"/><linearGradient id="linear-gradient-8" x1="38.81" y1="-0.27" x2="38.81" y2="30.39" gradientTransform="matrix(1, 0, 0, -1, -1.81, 30.42)" xlink:href="#linear-gradient-5"/><linearGradient id="linear-gradient-9" x1="9.59" y1="25.49" x2="9.59" y2="30.38" gradientTransform="matrix(1, 0, 0, -1, -1.81, 30.42)" xlink:href="#linear-gradient-5"/><linearGradient id="linear-gradient-10" x1="28.16" y1="-0.26" x2="28.16" y2="12.2" gradientTransform="matrix(1, 0, 0, -1, -1.81, 30.42)" xlink:href="#linear-gradient-5"/><linearGradient id="linear-gradient-11" x1="18.83" y1="12.19" x2="18.83" y2="30.38" gradientTransform="matrix(1, 0, 0, -1, -1.81, 30.42)" xlink:href="#linear-gradient-5"/><linearGradient id="linear-gradient-12" x1="44.66" y1="17.68" x2="66.35" y2="17.68" xlink:href="#linear-gradient"/><linearGradient id="linear-gradient-13" x1="70.54" y1="17.68" x2="95.4" y2="17.68" xlink:href="#linear-gradient"/><linearGradient id="linear-gradient-14" x1="108.55" y1="15.36" x2="108.55" y2="20.39" gradientTransform="matrix(1, 0, 0, -1, -1.81, 30.42)" xlink:href="#linear-gradient-5"/><linearGradient id="linear-gradient-15" x1="114.29" y1="-0.37" x2="114.29" y2="30.36" gradientTransform="matrix(1, 0, 0, -1, -1.81, 30.42)" xlink:href="#linear-gradient-5"/></defs><title>logo-white</title><g id="Layer_1-2" data-name="Layer 1-2"><path class="cls-1" d="M132.49,26a1.93,1.93,0,0,0,.45,1.28,1.45,1.45,0,0,0,1.13.53h15.86v2.89H134.07a3.77,3.77,0,0,1-2.93-1.37A4.86,4.86,0,0,1,129.93,26V4.78h2.56Z"/><path class="cls-2" d="M172.85,4.78a6.41,6.41,0,0,1,5,2.35,8.32,8.32,0,0,1,2.09,5.71V30.65h-2.55V18.73H156.68V30.65h-2.56V12.84a8.37,8.37,0,0,1,2.07-5.71,6.49,6.49,0,0,1,5-2.35Zm4.54,11v-3a5.35,5.35,0,0,0-1.34-3.66,4.13,4.13,0,0,0-3.2-1.52H161.21A4.13,4.13,0,0,0,158,9.18a5.39,5.39,0,0,0-1.32,3.66v3Z"/><path class="cls-3" d="M206.37,17.36a7.36,7.36,0,0,1,2.52,5.81v.15a7.61,7.61,0,0,1-1.9,5.19,5.85,5.85,0,0,1-4.57,2.14H184.13V9.47a4.83,4.83,0,0,1,1.22-3.32,3.72,3.72,0,0,1,2.91-1.37h14.16A5.87,5.87,0,0,1,207.19,7a7.31,7.31,0,0,1,1.61,4.79A6.87,6.87,0,0,1,206.37,17.36Zm-19.68-1.54h15.73a3.55,3.55,0,0,0,2.9-1.26,4.37,4.37,0,0,0,.92-2.8,4.31,4.31,0,0,0-.92-2.8,3.53,3.53,0,0,0-2.9-1.3H188.26a1.44,1.44,0,0,0-1.11.53,1.89,1.89,0,0,0-.46,1.28Zm19.64,7.35A4.64,4.64,0,0,0,205.19,20a3.58,3.58,0,0,0-2.77-1.3H186.69v9h15.73a3.55,3.55,0,0,0,2.77-1.32,4.53,4.53,0,0,0,1.14-3.12Z"/><path class="cls-4" d="M232,15.84a3.87,3.87,0,0,1,3,1.44,5,5,0,0,1,1.25,3.44v5.07A5,5,0,0,1,235,29.22a3.93,3.93,0,0,1-3,1.43H213.08V27.76H232a1.58,1.58,0,0,0,1.23-.58,2,2,0,0,0,.51-1.39V20.72a2,2,0,0,0-.51-1.39,1.58,1.58,0,0,0-1.23-.58H217.2a3.76,3.76,0,0,1-2.92-1.38,4.83,4.83,0,0,1-1.2-3.31V9.49a4.9,4.9,0,0,1,1.2-3.33,3.79,3.79,0,0,1,2.92-1.37h19.11V7.7H217.2a1.44,1.44,0,0,0-1.11.53,1.83,1.83,0,0,0-.47,1.26v4.57a1.85,1.85,0,0,0,.47,1.27,1.44,1.44,0,0,0,1.11.51Z"/><polygon class="cls-5" points="15.69 24.89 5.73 4.93 0 4.93 12.88 30.68 12.88 30.68 15.69 24.89"/><polygon class="cls-6" points="30.88 5.42 28.03 11.28 31.32 18.03 34.17 12.17 30.88 5.42 30.88 5.42"/><path class="cls-7" d="M25.17,5.42C24.4,7,20.26,15.5,12.89,30.68h5.69L30.88,5.42Z"/><path class="cls-8" d="M40.3,0C32.93,14.63,35.59,9.24,28,24.9l2.89,5.79C38.54,14.9,35.53,21,46,0Z"/><path class="cls-9" d="M3.85,0,0,4.9H12.28L15.57,0Z"/><path class="cls-10" d="M24.62,18.22,21.83,24l3.33,6.66h5.71C28.19,25.3,28.05,25,24.62,18.22Z"/><path class="cls-11" d="M15.57,0,12.28,4.9l6.66,13.3,2.82-5.8Z"/><path class="cls-12" d="M44.66,9.42a4.87,4.87,0,0,1,1.21-3.34A3.76,3.76,0,0,1,48.79,4.7H66.35V7.6H48.79a1.42,1.42,0,0,0-1.11.54,1.88,1.88,0,0,0-.47,1.28v6.37H66.35v2.92H47.21v9.06H66.35v2.9H44.66Z"/><path class="cls-13" d="M92.86,17.33a7.38,7.38,0,0,1,2.54,5.83v.15a7.62,7.62,0,0,1-1.91,5.21,5.91,5.91,0,0,1-4.59,2.15H70.54V9.42a4.84,4.84,0,0,1,1.23-3.34A3.76,3.76,0,0,1,74.69,4.7H88.9a5.87,5.87,0,0,1,4.78,2.2,7.34,7.34,0,0,1,1.62,4.8A6.89,6.89,0,0,1,92.86,17.33ZM73.11,15.79H88.9a3.54,3.54,0,0,0,2.91-1.27,4.32,4.32,0,0,0,.92-2.81,4.24,4.24,0,0,0-.92-2.8A3.53,3.53,0,0,0,88.9,7.6H74.69a1.42,1.42,0,0,0-1.11.54,1.88,1.88,0,0,0-.47,1.28Zm19.72,7.37A4.66,4.66,0,0,0,91.68,20a3.61,3.61,0,0,0-2.78-1.3H73.11v9.06H88.9a3.57,3.57,0,0,0,2.78-1.32,4.54,4.54,0,0,0,1.15-3.14Z"/><path class="cls-14" d="M106.79,10a8,8,0,0,0-7.5,5h14.9A7.73,7.73,0,0,0,106.79,10Z"/><path class="cls-15" d="M125.77,16.41c0-9-8.65-16.28-19.27-16.28a21.88,21.88,0,0,0-7.31,1.19l2.11,3.87a17,17,0,0,1,5.56-.91c7.66,0,13.84,5.59,13.84,12a15.76,15.76,0,0,1-.35,2.56h-21a7.37,7.37,0,0,0,7.12,4.42,9.38,9.38,0,0,0,6-2h7.12a12.41,12.41,0,0,1-6.19,5.85l2,3.68C121.61,28.07,125.77,22.66,125.77,16.41Z"/></g></svg>